HIERARCHY
ROOT Hips
{
	OFFSET -3.958830 18.904000 13.208200
	CHANNELS 6 Xposition Yposition Zposition Zrotation Yrotation Xrotation 
	JOINT LHipJoint
	{
		OFFSET 0.000000 0.000000 0.000000
		CHANNELS 3 Zrotation Yrotation Xrotation
		JOINT LeftUpLeg
		{
			OFFSET 1.800000 -1.400000 0.085000
			CHANNELS 3 Zrotation Yrotation Xrotation
			JOINT LeftLeg
			{
				OFFSET 2.215000 -6.000000 0.000000
				CHANNELS 3 Zrotation Yrotation Xrotation
				JOINT LeftFoot
				{
					OFFSET 2.500000 -6.900000 0.000000
					CHANNELS 3 Zrotation Yrotation Xrotation
					JOINT LeftToeBase
					{
						OFFSET 0.200000 -0.500000 1.950000
						CHANNELS 3 Zrotation Yrotation Xrotation
						End Site
						{
							OFFSET 0.000000 0.000000 0.000000
						}
					}
				}
			}
		}
	}
	JOINT RHipJoint
	{
		OFFSET 0.000000 0.000000 0.000000
		CHANNELS 3 Zrotation Yrotation Xrotation
		JOINT RightUpLeg
		{
			OFFSET -1.800000 -1.400000 0.085000
			CHANNELS 3 Zrotation Yrotation Xrotation
			JOINT RightLeg
			{
				OFFSET -2.215000 -6.000000 0.000000
				CHANNELS 3 Zrotation Yrotation Xrotation
				JOINT RightFoot
				{
					OFFSET -2.500000 -6.900000 0.000000
					CHANNELS 3 Zrotation Yrotation Xrotation
					JOINT RightToeBase
					{
						OFFSET -0.200000 -0.500000 1.950000
						CHANNELS 3 Zrotation Yrotation Xrotation
						End Site
						{
							OFFSET 0.000000 0.000000 0.000000
						}
					}
				}
			}
		}
	}
	JOINT LowerBack
	{
		OFFSET 0.000000 0.000000 0.000000
		CHANNELS 3 Zrotation Yrotation Xrotation
		JOINT Spine
		{
			OFFSET -0.087000 1.940000 -0.288900
			CHANNELS 3 Zrotation Yrotation Xrotation
			JOINT Spine1
			{
				OFFSET 0.000000 1.950000 0.060000
				CHANNELS 3 Zrotation Yrotation Xrotation
				JOINT Neck
				{
					OFFSET 0.000000 0.000000 0.000000
					CHANNELS 3 Zrotation Yrotation Xrotation
					JOINT Neck1
					{
						OFFSET 0.000000 1.600000 0.340000
						CHANNELS 3 Zrotation Yrotation Xrotation
						JOINT Head
						{
							OFFSET 0.000000 1.667000 -0.240000
							CHANNELS 3 Zrotation Yrotation Xrotation
							End Site
							{
								OFFSET 0.000000 0.000000 0.000000
							}
						}
					}
				}
				JOINT LeftShoulder
				{
					OFFSET 0.000000 0.000000 0.000000
					CHANNELS 3 Zrotation Yrotation Xrotation
					JOINT LeftArm
					{
						OFFSET 2.700000 1.550000 -0.730000
						CHANNELS 3 Zrotation Yrotation Xrotation
						JOINT LeftForeArm
						{
							OFFSET 5.450000 0.000000 0.000000
							CHANNELS 3 Zrotation Yrotation Xrotation
							JOINT LeftHand
							{
								OFFSET 3.450000 0.000000 0.000000
								CHANNELS 3 Zrotation Yrotation Xrotation
								JOINT LeftHandIndex1
								{
									OFFSET 0.750000 0.000000 0.000000
									CHANNELS 3 Zrotation Yrotation Xrotation
									End Site
									{
										OFFSET 0.000000 0.000000 0.000000
									}
								}
							}
						}
					}
				}
				JOINT RightShoulder
				{
					OFFSET 0.000000 0.000000 0.000000
					CHANNELS 3 Zrotation Yrotation Xrotation
					JOINT RightArm
					{
						OFFSET -2.700000 1.550000 -0.730000
						CHANNELS 3 Zrotation Yrotation Xrotation
						JOINT RightForeArm
						{
							OFFSET -5.450000 0.000000 0.000000
							CHANNELS 3 Zrotation Yrotation Xrotation
							JOINT RightHand
							{
								OFFSET -3.450000 0.000000 0.000000
								CHANNELS 3 Zrotation Yrotation Xrotation
								JOINT RightHandIndex1
								{
									OFFSET -0.750000 0.000000 0.000000
									CHANNELS 3 Zrotation Yrotation Xrotation
									End Site
									{
										OFFSET 0.000000 0.000000 0.000000
									}
								}
							}
						}
					}
				}
			}
		}
	}
}
MOTION
Frames: 8
Frame Time: 0.016667
-0.812710 16.938990 -2.593100 -11.509549 -26.466714 7.397762 -15.194190 12.247068 4.881537 6.648750 -7.651131 -37.750880 -12.264663 11.270767 34.794694 0.207979 7.322534 2.114165 0.029090 -0.309800 -0.182690 18.361083 -10.552916 2.470839 4.728651 2.320833 -16.373953 -5.931889 -3.655773 35.804027 -0.388184 -5.088874 2.734274 -0.224100 0.756200 0.385360 -3.510509 -1.627759 -8.047493 6.358468 2.607659 16.381983 -7.453488 4.851740 -0.044081 1.867700 -5.680239 -8.519088 -13.098821 5.881483 33.500675 4.634200 -0.058020 4.270510 -12.305460 7.062574 -0.513363 -57.436721 -10.874915 5.591989 -83.883939 -57.258837 46.992578 -3.878808 3.745365 0.313530 0.359680 -0.230850 0.328940 8.168577 -2.135155 5.665711 55.492301 -10.692615 -12.675512 35.701991 39.129269 8.682028 2.107410 -1.735903 -0.189790 0.136240 0.143600 0.108340 
-0.880240 16.848990 -2.553710 -13.308663 -27.345948 6.855560 -15.142525 12.231442 4.584241 6.517547 -6.754622 -37.242451 -10.331978 10.330680 33.443576 0.075646 6.823393 2.268741 0.076340 -0.255760 -0.160930 18.434219 -10.373821 2.850277 6.543326 4.487896 -20.030737 -6.940481 -3.755030 45.371979 -0.695247 -6.407904 2.257452 -0.187110 0.755480 0.405170 -3.735878 -1.576274 -8.101250 8.322082 1.969921 17.460899 -8.086270 4.538967 0.024433 1.746347 -6.128830 -8.350712 -13.671317 6.553284 32.734331 5.177180 0.039140 2.923540 -11.810953 7.384210 -0.919710 -55.728995 -11.122495 5.497946 -86.367329 -55.493249 47.356585 -3.865606 3.790586 0.317740 0.353830 -0.215970 0.338400 7.713659 -2.332455 5.634479 53.235860 -10.639586 -11.814309 42.177824 41.341426 11.569928 2.086596 -1.830931 -0.174930 0.144690 0.135120 0.115530 
-0.947830 16.745890 -2.507150 -14.610066 -27.480943 6.489769 -15.143444 12.034823 4.375295 6.123304 -6.592082 -37.708946 -8.002663 9.832058 34.709587 0.039056 6.775098 2.296766 0.097680 -0.221820 -0.171630 18.505168 -10.037608 3.260778 6.822421 7.062525 -24.831938 -6.146411 -5.239644 55.882758 -1.073458 -8.144044 1.687536 -0.148200 0.788490 0.402950 -3.937724 -1.534098 -8.224490 9.832544 1.216769 17.702850 -8.747985 3.964967 0.295926 1.682656 -6.255570 -8.070467 -13.629163 6.926685 32.066068 5.248160 0.190380 3.232640 -11.671002 7.347574 -1.416058 -53.497526 -11.851844 5.434910 -87.078752 -53.552016 46.360883 -3.873860 3.825490 0.290700 0.377960 -0.238700 0.364350 7.544319 -2.544451 5.625281 51.359726 -10.704161 -10.997265 48.053057 43.690122 14.594585 2.061759 -1.938104 -0.184140 0.162700 0.125440 0.129470 
-1.022530 16.639030 -2.463630 -15.295180 -27.247733 5.221313 -15.181834 11.859434 4.199095 6.230426 -6.560671 -37.391501 -7.118749 10.177118 36.924628 0.097176 7.119727 2.182704 0.134470 -0.172190 -0.131040 18.533712 -9.641414 3.665215 5.533320 9.429410 -29.628552 -4.458337 -8.110221 66.135797 -1.534662 -10.006675 1.110307 -0.117920 0.770890 0.395150 -4.010911 -1.655368 -8.430163 10.134732 0.272033 18.726379 -9.149091 3.138490 0.663133 1.770262 -6.175341 -8.085814 -13.556842 7.231915 32.538446 4.989180 0.674990 2.572290 -11.704195 6.506455 -1.583784 -50.940266 -12.272067 4.549441 -86.972758 -52.420648 45.064218 -3.860844 3.806075 0.300740 0.364560 -0.212690 0.372850 7.407815 -2.047235 5.776817 50.420210 -10.360165 -10.639284 53.186840 46.224456 17.641785 2.062224 -1.994254 -0.182910 0.184480 0.097600 0.126350 
-1.098910 16.539060 -2.440730 -15.306717 -26.603544 2.958064 -15.269748 11.817517 4.081476 6.656495 -6.616171 -36.681949 -6.472060 10.910107 40.112846 0.186772 7.706801 1.961116 0.179910 -0.117810 -0.078920 18.488403 -9.246154 3.984797 3.139653 11.019239 -33.688647 -2.595293 -11.642169 74.251208 -1.953055 -11.606487 0.639810 -0.087210 0.714000 0.372100 -3.853059 -2.051570 -8.676688 8.413706 -0.513497 21.003944 -8.208371 2.260181 0.535537 1.661793 -5.989196 -8.195136 -13.584776 7.940962 33.861358 5.394050 1.157050 1.290460 -12.172621 5.268369 -1.603231 -48.231567 -12.205634 3.172429 -85.374176 -50.684447 42.062924 -3.816186 3.768111 0.346830 0.315470 -0.171180 0.361450 8.316702 -1.049219 5.870370 48.358085 -9.961395 -10.348064 57.766704 48.895547 20.792707 2.083787 -2.006279 -0.184540 0.198680 0.075240 0.104700 
-1.163970 16.456420 -2.409800 -15.711888 -26.343878 0.709109 -15.335029 11.810231 4.007367 8.133031 -6.494512 -35.649232 -6.686235 12.153704 43.406321 0.337140 8.504762 1.671064 0.239190 -0.070210 -0.011020 18.447433 -8.952527 4.185548 0.699698 11.803680 -36.545895 -0.965392 -14.771910 78.951322 -2.252555 -12.678248 0.328990 -0.072830 0.652240 0.399500 -3.728516 -2.376979 -8.868183 7.459798 -1.196859 23.292898 -7.747210 1.592843 0.514503 1.845881 -5.745022 -8.257075 -13.531995 8.425072 35.359247 5.070860 1.829940 0.453660 -14.315578 3.613028 -1.852902 -44.369786 -12.435240 2.253993 -84.545788 -50.389817 41.104747 -3.800072 3.761620 0.385750 0.280150 -0.118390 0.358340 10.223410 0.171651 6.215233 45.386608 -10.349753 -10.041247 64.292988 53.145060 25.981325 2.124767 -2.047631 -0.155860 0.167620 0.044370 0.084930 
-1.219790 16.375060 -2.370670 -16.546412 -25.744315 -0.810068 -15.362231 11.750670 4.027248 10.062078 -6.538602 -35.272233 -6.647482 13.415406 47.161671 0.519958 9.372694 1.390094 0.274440 -0.026730 0.018540 18.445700 -8.752607 4.258866 -1.477249 11.818016 -38.613294 0.848622 -17.062028 79.743748 -2.357234 -13.091624 0.206813 -0.046730 0.629790 0.378430 -3.728464 -2.551736 -8.986217 7.643939 -2.194719 24.739400 -7.723711 0.757328 0.419980 1.760354 -5.884076 -8.147525 -14.126402 9.184467 36.198271 5.540120 1.784460 0.284770 -16.285510 2.518505 -2.234646 -40.927187 -12.666045 1.558331 -80.334187 -48.882747 37.313168 -3.772819 3.721973 0.392080 0.251250 -0.100820 0.370370 12.377695 0.889175 6.437430 42.047577 -11.072601 -9.564366 71.513364 57.538275 32.293618 2.209934 -2.049265 -0.153900 0.180890 0.012600 0.088490 
-1.267350 16.305000 -2.327680 -16.868502 -25.375132 -2.058794 -15.402096 11.695997 4.098820 11.756987 -6.631315 -34.790737 -7.908757 14.994221 49.334933 0.700915 10.120533 1.183306 0.235170 -0.057230 -0.016530 18.424896 -8.561398 4.297454 -3.974642 11.503927 -40.460835 2.882920 -18.726390 78.543663 -2.335553 -13.174621 0.196188 -0.061080 0.672920 0.348630 -3.666676 -2.761198 -9.094844 7.230934 -2.889951 25.884904 -7.680043 -0.014294 -0.423628 1.837723 -6.063100 -8.010498 -14.631755 10.141601 36.465268 5.836460 1.870320 1.176410 -17.693961 2.401430 -2.553751 -39.277740 -12.442803 1.319868 -75.393936 -47.460356 33.587665 -3.795850 3.642859 0.375990 0.267770 -0.126240 0.375570 13.732477 0.806788 6.433110 39.972823 -11.346469 -8.838418 78.134698 60.869317 38.577461 2.306100 -1.967529 -0.177640 0.221470 0.025340 0.103030 
